<?xml version="1.0" encoding="utf-8"?>
<!-- Generator: Adobe Illustrator 15.0.2, SVG Export Plug-In . SVG Version: 6.00 Build 0)  -->
<!DOCTYPE svg PUBLIC "-//W3C//DTD SVG 1.1//EN" "http://www.w3.org/Graphics/SVG/1.1/DTD/svg11.dtd">
<svg version="1.1" id="Layer_1" xmlns="http://www.w3.org/2000/svg" xmlns:xlink="http://www.w3.org/1999/xlink" x="0px" y="0px"
	 width="150px" height="150px" viewBox="0 0 150 150" enable-background="new 0 0 150 150" xml:space="preserve">
<path fill="#E31837" d="M93.512,43.43l-1.362,0.145v14.109c0.547,0.073,0.915,0.094,1.624,0.094c2.747,0,3.664-1.479,4.721-4.181
	l0.63,0.216l-0.978,5.069c-1.074-0.289-1.219-0.313-2.38-0.313h-6.731v-0.791l1.221-0.165V43.574l-1.221-0.145v-0.809h4.477V43.43z"
	/>
<path fill="#E31837" d="M101.077,44.912c-0.592,0-1.102-0.549-1.102-1.24c0-0.694,0.51-1.27,1.141-1.27
	c0.591,0,1.035,0.576,1.035,1.314C102.151,44.339,101.645,44.912,101.077,44.912 M101.87,57.613l0.954,0.165v0.791h-3.521v-0.791
	l1.02-0.165v-7.869c0-0.552-0.181-0.814-0.549-0.814c-0.163,0-0.302,0.05-0.471,0.097v-0.741l2.567-0.983V57.613z"/>
<path fill="#E31837" d="M106.08,49.072c0.589-1.001,1.685-1.671,2.704-1.671c2.236,0,2.909,1.937,2.909,4.21v6.002l0.936,0.165
	v0.791h-3.501v-0.791l1.019-0.165v-5.955c0-2.055-0.61-3.132-1.788-3.132c-0.874,0-1.773,0.597-2.278,1.553v7.534l1.015,0.165v0.791
	h-3.576v-0.791l1.015-0.165v-6.767c0-1.508-0.164-1.916-0.731-1.916c-0.061,0-0.163,0-0.283,0.05v-0.814l1.892-0.933
	C105.814,47.784,106.021,48.333,106.08,49.072"/>
<path fill="#E31837" d="M116.98,58.974c-2.378,0-4.005-2.152-4.005-5.305c0-3.446,1.992-6.244,4.454-6.244
	c1.464,0,2.646,0.838,2.646,1.89c0,0.693-0.451,1.245-1.019,1.245c-0.528,0-1.039-0.552-1.159-1.269
	c-0.166-0.883-0.226-0.957-0.856-0.957c-1.422,0-2.5,1.863-2.5,4.331c0,2.772,1.361,4.851,3.214,4.851
	c0.894,0,1.462-0.452,2.237-1.745l0.509,0.431C119.604,58.02,118.385,58.974,116.98,58.974"/>
<path fill="#E31837" d="M129.104,53.285c0-3.301-1.79-5.86-4.089-5.86c-2.379,0-4.373,2.607-4.373,5.716
	c0,3.25,1.871,5.833,4.253,5.833C127.13,58.974,129.104,56.298,129.104,53.285 M127.254,53.069c0,3.229-0.834,5.02-2.34,5.02
	c-1.647,0-2.423-1.601-2.423-5.09c0-2.967,0.957-4.786,2.523-4.786C126.378,48.212,127.254,50.079,127.254,53.069"/>
<path fill="#E31837" d="M131.755,57.613l1.018,0.165v0.791h-3.58v-0.791l1.018-0.165V44.791c0-1.075-0.161-1.432-0.631-1.432
	c-0.102,0-0.142,0.024-0.387,0.071v-0.838l2.563-1.17V57.613z"/>
<path fill="#E31837" d="M136.028,49.072c0.588-1.001,1.688-1.671,2.702-1.671c2.241,0,2.908,1.937,2.908,4.21v6.002l0.936,0.165
	v0.791h-3.498v-0.791l1.018-0.165v-5.955c0-2.055-0.609-3.132-1.79-3.132c-0.877,0-1.771,0.597-2.275,1.553v7.534l1.015,0.165v0.791
	h-3.58v-0.791l1.017-0.165v-6.767c0-1.508-0.164-1.916-0.729-1.916c-0.062,0-0.164,0-0.287,0.05v-0.814l1.89-0.933
	C135.76,47.784,135.965,48.333,136.028,49.072"/>
<path fill="#E31837" d="M57.857,4.997v4.494c0,1.072,0.042,1.389,0.26,1.75c0.259,0.451,0.74,0.721,1.3,0.721
	c0.646,0,1.179-0.35,1.396-0.914c0.135-0.328,0.168-0.634,0.168-1.558V4.997h0.832v4.46c0,1.173-0.073,1.637-0.333,2.122
	c-0.396,0.724-1.093,1.096-2.062,1.096c-1.071,0-1.83-0.476-2.174-1.345c-0.166-0.439-0.22-0.845-0.22-1.872v-4.46H57.857z"/>
<polygon fill="#E31837" points="68.182,12.526 67.38,12.526 63.883,6.41 63.883,12.526 63.082,12.526 63.082,4.997 63.883,4.997 
	67.38,11.116 67.38,4.997 68.182,4.997 "/>
<line fill="none" stroke="#E31837" stroke-width="0.848" stroke-linejoin="bevel" x1="70.138" y1="12.526" x2="70.138" y2="4.997"/>
<polygon fill="#E31837" points="74.332,11.014 76.477,4.997 77.205,4.997 74.521,12.526 74.001,12.526 71.605,4.997 72.419,4.997 
	"/>
<polygon fill="#E31837" points="81.398,8.328 81.398,9.039 79.173,9.039 79.173,11.815 81.732,11.815 81.732,12.526 78.34,12.526 
	78.34,4.997 81.398,4.997 81.398,5.709 79.173,5.709 79.173,8.328 "/>
<path fill="#E31837" d="M82.92,12.526h0.834V9.083h0.696l1.803,3.442h0.886l-1.916-3.555c0.355-0.159,0.531-0.27,0.718-0.497
	c0.33-0.406,0.53-0.993,0.53-1.602c0-0.758-0.281-1.389-0.752-1.661c-0.266-0.158-0.611-0.214-1.269-0.214h-1.53V12.526z
	 M83.754,8.373V5.709h0.864c0.665,0,0.948,0.348,0.948,1.185c0,0.553-0.146,0.993-0.428,1.241c-0.211,0.18-0.387,0.237-0.844,0.237
	H83.754z"/>
<path fill="#E31837" d="M90.602,6.477c-0.226-0.645-0.527-0.913-0.996-0.913c-0.532,0-0.908,0.483-0.908,1.151
	c0,0.609,0.207,0.912,1.053,1.511c0.626,0.441,0.862,0.645,1.083,0.926c0.271,0.329,0.412,0.79,0.412,1.321
	c0,1.309-0.787,2.202-1.944,2.202c-0.802,0-1.361-0.362-1.758-1.118l0.52-0.735c0.219,0.723,0.668,1.141,1.221,1.141
	c0.654,0,1.093-0.553,1.093-1.365c0-0.407-0.118-0.711-0.344-0.96c-0.182-0.201-0.189-0.201-0.763-0.62
	c-1.069-0.767-1.413-1.309-1.413-2.18c0-1.139,0.738-1.987,1.726-1.987c0.699,0,1.181,0.318,1.551,0.994L90.602,6.477z"/>
<line fill="none" stroke="#E31837" stroke-width="0.849" stroke-linejoin="bevel" x1="92.987" y1="12.526" x2="92.987" y2="4.997"/>
<polygon fill="#E31837" points="97.452,12.526 96.619,12.526 96.619,5.709 94.807,5.709 94.807,4.997 99.2,4.997 99.2,5.709 
	97.452,5.709 "/>
<polygon fill="#E31837" points="105.061,4.997 103.008,9.185 103.008,12.526 102.181,12.526 102.181,9.185 100.097,4.997 
	100.961,4.997 102.635,8.282 104.28,4.997 "/>
<path fill="#E31837" d="M119.414,4.85c-1.85,0-2.975,1.457-2.975,3.851c0,1.41,0.271,2.347,0.894,3.069
	c0.521,0.599,1.229,0.904,2.081,0.904c0.846,0,1.562-0.316,2.07-0.904c0.605-0.71,0.895-1.67,0.895-3.014
	C122.379,6.295,121.277,4.85,119.414,4.85 M119.414,5.563c1.279,0,2.061,1.205,2.061,3.193c0,1.998-0.781,3.206-2.061,3.206
	c-1.312,0-2.07-1.197-2.07-3.251C117.344,6.768,118.138,5.563,119.414,5.563"/>
<polygon fill="#E31837" points="126.71,8.373 126.71,9.083 124.765,9.083 124.765,12.526 123.935,12.526 123.935,4.997 
	126.941,4.997 126.941,5.709 124.765,5.709 124.765,8.373 "/>
<path fill="#E31837" d="M23.989,4.354v0.979l0.595,0.114c2.72,0.524,3.139,0.607,3.139,3.839v19.27
	c-0.768-1.28-14.5-24.202-14.5-24.202H5.877V5.4L6.57,5.458c2.815,0.233,3.178,0.265,3.178,3.498V33.01
	c0,2.914-0.494,2.983-2.865,3.319l-1.009,0.15l0.003,0.187v0.954h10.161v-1.14l-1.139-0.171c-2.433-0.354-2.871-0.418-2.871-3.298
	V12.677c0.766,1.208,15.792,24.942,15.792,24.942h2.183V9.098c0-2.86,0.396-2.974,2.593-3.604l0.45-0.129v-1.01H23.989z"/>
<path fill="#E31837" d="M57.565,36.051c-3.156,0-4.069-1.724-4.069-7.693v-7.635c1.344-1.539,2.435-2.177,3.746-2.177
	c3.344,0,5.865,4.056,5.865,9.435C63.108,32.884,60.932,36.051,57.565,36.051 M58.994,15.237c-2.309,0-4.028,0.879-5.498,2.806V2
	l-0.295,0.108l-6.087,2.268v1.112l0.276-0.076c0.479-0.134,0.64-0.134,0.864-0.134c0.96,0,1.302,0.409,1.302,2.702v20.803
	c0,4.426-0.238,6.055-1.276,8.728l-0.07,0.178l1.203,0.646c0,0,2.402-2.856,2.734-3.253c1.333,2.208,3.29,3.337,5.831,3.337
	c5.06,0,9.023-5.327,9.023-12.133C67.003,19.678,63.783,15.237,58.994,15.237"/>
<path fill="#E31837" d="M137.477,32.603c-1.302,1.529-2.766,2.412-4.021,2.412c-1.958,0-3.374-1.589-3.374-3.787
	c0-4.063,4.057-5.439,7.322-6.543c0,0,0.047-0.019,0.073-0.026V32.603z M125.907,32.408c0,1.461,0.479,2.78,1.319,3.811
	c-0.268-0.032-0.451-0.053-0.54-0.063c-0.108-0.192-7.141-12.954-7.277-13.203c1.272-1.679,4.654-4.428,7.222-4.746
	c0.693-0.086,1.206-0.148,1.324,0.03c0.486,0.731,1.613,0.659,1.613,0.659c0.258-0.026,1.635,0.176,2.839-1.768
	c0.002-0.008,0.061-0.273,0.77-0.277c3.063-0.019,4.244,3.519,4.288,5.841C133.082,24.109,125.907,26.479,125.907,32.408
	 M143.721,33.924l-0.146,0.176c-0.659,0.817-0.92,0.957-1.256,0.957c-0.497,0-0.844-0.839-0.844-2.042V22.888
	c0-2.742-0.457-3.994-1.879-5.16c-3.829-3.136-7.91-3.121-9.243-3.081c-3.965-0.15-13.728,5.391-16.284,11.866V2.044l-6.154,2.32
	v1.204l0.277-0.081c0.298-0.087,0.595-0.129,0.889-0.129c0.76,0,1.099,0.328,1.099,2.26V36.24c-0.313,0.045-2.265,0.321-2.265,0.321
	v1.306h8.423v-1.306c0,0-1.95-0.276-2.269-0.321c0.008-4.867,0.261-6.128,2.98-10.005c0.311,0.583,5.042,9.488,5.311,9.989
	c-0.46,0.066-2.147,0.308-2.147,0.308v1.335h9.265c0.764,0.313,1.586,0.5,2.469,0.5c2.435,0,4.707-1.435,6.003-3.706
	c0.202,2.363,1.327,3.706,3.172,3.706c1.041,0,2.446-1.114,3.863-3.059l0.115-0.157L143.721,33.924z"/>
<path fill="#E31837" d="M40.14,17.321c2.075,0,3.469,1.618,3.469,4.021c0,1.237-0.423,1.976-2.739,2.565
	c0,0-4.767,1.182-5.984,1.485C34.947,20.412,36.943,17.321,40.14,17.321 M47.1,31.381l-0.135,0.2
	c-1.717,2.539-3.178,3.529-5.211,3.529c-3.292,0-5.942-2.912-6.658-7.254c0.387-0.104,13.304-3.577,13.304-3.577l-0.022-0.186
	c-0.662-5.546-3.74-8.856-8.237-8.856c-5.051,0-9.161,5.569-9.161,12.416c0,6.238,3.95,10.766,9.391,10.766
	c3.544,0,6.081-1.834,7.986-5.774l0.075-0.154L47.1,31.381z"/>
<path fill="#E31837" d="M88.219,32.697c-1.302,1.527-2.766,2.413-4.021,2.413c-1.954,0-3.379-1.592-3.379-3.787
	c0-4.063,4.06-5.438,7.321-6.542c0,0,0.053-0.02,0.079-0.027V32.697z M103.642,24.483c-4.825-2.092-5.211-2.415-5.211-4.32
	c0-1.489,1.355-2.76,3.08-2.774c0,0,1.41-0.077,1.618,0.604c0.05,0.228,0.676,2.146,2.963,1.69c1.021-0.205,1.347-1.137,1.373-1.835
	c0.056-1.324-1.537-2.657-3.954-2.657c-4.88,0-8.563,2.866-8.563,6.668c0,3.555,2.923,4.878,5.747,6.159
	c2.473,1.121,4.807,2.178,4.807,4.672c0,1.958-1.719,3.55-3.837,3.55c-2.149,0-2.87-1.059-3.026-2.652
	c-0.156-1.55-1.456-1.965-2.526-1.995c-1.188-0.031-2.124,0.844-2.215,2.258c-0.019,0.308,0.031,0.333,0.095,0.62
	c-0.469,0.536-0.704,0.639-0.991,0.639c-0.494,0-0.841-0.841-0.841-2.042l0.008-10.117c0-2.744-0.457-3.997-1.876-5.161
	c-2.313-2.104-7.036-3.791-10.948-2.974c-2.176,0.455-5.694,3.089-7.334,7.557c-0.13-3.455-0.482-4.855-1.695-7.205l-0.098-0.189
	l-4.323,2.031v0.871l0.465-0.109l0.262-0.043c1.313,0,1.898,1.663,1.898,5.388v13.047c-0.315,0.042-2.302,0.328-2.302,0.328v1.127
	h8.682V36.49c0,0-2.116-0.284-2.438-0.332c0-0.352,0.049-5.054,0.049-5.054c0.569-10.604,2.939-11.706,3.955-12.353
	c0.847-0.536,2.069-0.624,2.182-0.455c0.487,0.732,1.616,0.658,1.616,0.658c0.305-0.03,1.695,0.143,2.839-1.766
	c0.002-0.009,0.06-0.274,0.771-0.278c3.065-0.018,4.242,3.519,4.29,5.843l0.05,0.012v0.021c-4.39,1.417-11.566,3.787-11.566,9.716
	c0,3.484,2.463,5.916,5.986,5.916c2.429,0,4.707-1.438,5.997-3.703c0.208,2.358,1.333,3.703,3.173,3.703
	c0.869,0,1.988-0.775,3.153-2.152c1.234,1.345,3.463,2.152,6.299,2.152c4.386,0,7.82-3.015,7.82-6.859
	C109.073,28.577,107.045,25.933,103.642,24.483"/>
<g>
	<g>
		<path fill="#FFFFFF" d="M120.453,72.5H85.742v17.295c0,0,7.663,0,8.706,0c0,1.324,0,14.893,0,17.621
			C92.192,104.583,66.61,72.5,66.61,72.5H43.772v17.295c0,0,7.663,0,8.708,0c0,1.43,0,37.395,0,38.824c-1.045,0-8.708,0-8.708,0
			v17.295H78.48v-17.295c0,0-7.659,0-8.703,0c0-1.324,0-14.907,0-17.637c2.257,2.833,27.853,34.932,27.853,34.932h22.823v-17.295
			c0,0-7.673,0-8.705,0c0-1.397,0-37.395,0-38.824c1.045,0,8.705,0,8.705,0V72.5L120.453,72.5z M118.907,74.049v14.199h-8.711
			v41.902l8.711,0.019v14.198H98.374c-0.45-0.564-30.147-37.807-30.147-37.807v23.608h8.706v14.198h-31.61v-14.198h8.705V88.248
			h-8.705V74.049h20.545C66.317,74.614,96,111.841,96,111.841V88.248h-8.706V74.049H118.907z"/>
	</g>
	<path fill="#E31837" d="M118.907,74.049v14.199h-8.711v41.902l8.711,0.019v14.198c0,0-19.837,0-20.533,0
		c-0.45-0.564-30.147-37.807-30.147-37.807v23.608c0,0,7.658,0,8.706,0c0,1.258,0,12.942,0,14.198c-1.407,0-30.207,0-31.61,0
		c0-1.256,0-12.94,0-14.198c1.046,0,8.705,0,8.705,0V88.248c0,0-7.659,0-8.705,0c0-1.261,0-12.943,0-14.199
		c1.331,0,19.849,0,20.545,0C66.317,74.614,96,111.841,96,111.841V88.248h-8.706V74.049H118.907z"/>
	<path fill="#FFFFFF" d="M106.756,83.251c0.99-0.868,2.342-1.134,3.814-1.134c0.709-0.008,1.34-0.008,1.79-0.003
		c0.451,0,0.727,0.003,0.727,0.003v-1.932H93.111v1.932h2.76c1.035,0,2.344,0.162,3.387,0.957c1.048,0.8,1.833,2.234,1.833,4.799
		v37.906L64.779,80.186H51.139v1.886c1.014,0,2.996,0.605,4.729,1.595c1.727,0.99,3.202,2.369,3.202,3.919v42.859
		c0,2.39-0.618,3.858-1.601,4.722c-0.987,0.863-2.339,1.129-3.813,1.129c-0.707,0.01-1.337,0.01-1.791,0.01
		c-0.451-0.005-0.725-0.01-0.725-0.01v1.937h19.975v-1.937h-2.759c-1.035,0-2.341-0.154-3.388-0.952
		c-1.048-0.8-1.834-2.24-1.834-4.802V92.549l36.381,45.683h13.573v-1.886c-1.018,0-3-0.603-4.729-1.598
		c-1.727-0.99-3.205-2.369-3.205-3.919V87.972C105.153,85.577,105.771,84.114,106.756,83.251z"/>
</g>
</svg>
